<mxfile host="app.diagrams.net" agent="Mozilla/5.0 (Macintosh; Intel Mac OS X 10_15_7) AppleWebKit/537.36 (KHTML, like Gecko) Chrome/130.0.0.0 Safari/537.36" version="24.8.6">
  <diagram id="C5RBs43oDa-KdzZeNtuy" name="Page-1">
    <mxGraphModel dx="1026" dy="620" grid="1" gridSize="10" guides="1" tooltips="1" connect="1" arrows="1" fold="1" page="1" pageScale="1" pageWidth="827" pageHeight="1169" math="0" shadow="0">
      <root>
        <mxCell id="WIyWlLk6GJQsqaUBKTNV-0" />
        <mxCell id="WIyWlLk6GJQsqaUBKTNV-1" parent="WIyWlLk6GJQsqaUBKTNV-0" />
        <mxCell id="bOfqtVTBMC3ul8wbQ4u8-3" value="" style="edgeStyle=orthogonalEdgeStyle;rounded=0;orthogonalLoop=1;jettySize=auto;html=1;" edge="1" parent="WIyWlLk6GJQsqaUBKTNV-1" source="bOfqtVTBMC3ul8wbQ4u8-0" target="bOfqtVTBMC3ul8wbQ4u8-1">
          <mxGeometry relative="1" as="geometry" />
        </mxCell>
        <mxCell id="bOfqtVTBMC3ul8wbQ4u8-0" value="Start&lt;div&gt;&lt;br&gt;&lt;/div&gt;" style="ellipse;whiteSpace=wrap;html=1;" vertex="1" parent="WIyWlLk6GJQsqaUBKTNV-1">
          <mxGeometry x="330" y="40" width="120" height="80" as="geometry" />
        </mxCell>
        <mxCell id="bOfqtVTBMC3ul8wbQ4u8-4" value="" style="edgeStyle=orthogonalEdgeStyle;rounded=0;orthogonalLoop=1;jettySize=auto;html=1;" edge="1" parent="WIyWlLk6GJQsqaUBKTNV-1" source="bOfqtVTBMC3ul8wbQ4u8-1" target="bOfqtVTBMC3ul8wbQ4u8-2">
          <mxGeometry relative="1" as="geometry" />
        </mxCell>
        <mxCell id="bOfqtVTBMC3ul8wbQ4u8-31" value="" style="edgeStyle=orthogonalEdgeStyle;rounded=0;orthogonalLoop=1;jettySize=auto;html=1;" edge="1" parent="WIyWlLk6GJQsqaUBKTNV-1" source="bOfqtVTBMC3ul8wbQ4u8-1" target="bOfqtVTBMC3ul8wbQ4u8-30">
          <mxGeometry relative="1" as="geometry" />
        </mxCell>
        <mxCell id="bOfqtVTBMC3ul8wbQ4u8-1" value="Nháº­p a,b" style="shape=parallelogram;perimeter=parallelogramPerimeter;whiteSpace=wrap;html=1;fixedSize=1;" vertex="1" parent="WIyWlLk6GJQsqaUBKTNV-1">
          <mxGeometry x="330" y="150" width="120" height="60" as="geometry" />
        </mxCell>
        <mxCell id="bOfqtVTBMC3ul8wbQ4u8-6" value="" style="edgeStyle=orthogonalEdgeStyle;rounded=0;orthogonalLoop=1;jettySize=auto;html=1;" edge="1" parent="WIyWlLk6GJQsqaUBKTNV-1" source="bOfqtVTBMC3ul8wbQ4u8-2" target="bOfqtVTBMC3ul8wbQ4u8-5">
          <mxGeometry relative="1" as="geometry" />
        </mxCell>
        <mxCell id="bOfqtVTBMC3ul8wbQ4u8-9" value="" style="edgeStyle=orthogonalEdgeStyle;rounded=0;orthogonalLoop=1;jettySize=auto;html=1;" edge="1" parent="WIyWlLk6GJQsqaUBKTNV-1" source="bOfqtVTBMC3ul8wbQ4u8-2" target="bOfqtVTBMC3ul8wbQ4u8-8">
          <mxGeometry relative="1" as="geometry" />
        </mxCell>
        <mxCell id="bOfqtVTBMC3ul8wbQ4u8-2" value="a=b" style="rhombus;whiteSpace=wrap;html=1;" vertex="1" parent="WIyWlLk6GJQsqaUBKTNV-1">
          <mxGeometry x="350" y="240" width="80" height="80" as="geometry" />
        </mxCell>
        <mxCell id="bOfqtVTBMC3ul8wbQ4u8-27" value="" style="edgeStyle=orthogonalEdgeStyle;rounded=0;orthogonalLoop=1;jettySize=auto;html=1;" edge="1" parent="WIyWlLk6GJQsqaUBKTNV-1" source="bOfqtVTBMC3ul8wbQ4u8-5" target="bOfqtVTBMC3ul8wbQ4u8-21">
          <mxGeometry relative="1" as="geometry" />
        </mxCell>
        <mxCell id="bOfqtVTBMC3ul8wbQ4u8-5" value="UCLN = a" style="rounded=0;whiteSpace=wrap;html=1;" vertex="1" parent="WIyWlLk6GJQsqaUBKTNV-1">
          <mxGeometry x="470" y="250" width="120" height="60" as="geometry" />
        </mxCell>
        <mxCell id="bOfqtVTBMC3ul8wbQ4u8-7" value="True" style="text;html=1;align=center;verticalAlign=middle;resizable=0;points=[];autosize=1;strokeColor=none;fillColor=none;" vertex="1" parent="WIyWlLk6GJQsqaUBKTNV-1">
          <mxGeometry x="420" y="250" width="50" height="30" as="geometry" />
        </mxCell>
        <mxCell id="bOfqtVTBMC3ul8wbQ4u8-12" value="" style="edgeStyle=orthogonalEdgeStyle;rounded=0;orthogonalLoop=1;jettySize=auto;html=1;" edge="1" parent="WIyWlLk6GJQsqaUBKTNV-1" source="bOfqtVTBMC3ul8wbQ4u8-8" target="bOfqtVTBMC3ul8wbQ4u8-11">
          <mxGeometry relative="1" as="geometry">
            <Array as="points">
              <mxPoint x="390" y="470" />
            </Array>
          </mxGeometry>
        </mxCell>
        <mxCell id="bOfqtVTBMC3ul8wbQ4u8-14" value="" style="edgeStyle=orthogonalEdgeStyle;rounded=0;orthogonalLoop=1;jettySize=auto;html=1;" edge="1" parent="WIyWlLk6GJQsqaUBKTNV-1" source="bOfqtVTBMC3ul8wbQ4u8-8" target="bOfqtVTBMC3ul8wbQ4u8-13">
          <mxGeometry relative="1" as="geometry" />
        </mxCell>
        <mxCell id="bOfqtVTBMC3ul8wbQ4u8-8" value="a&amp;gt;b" style="rhombus;whiteSpace=wrap;html=1;" vertex="1" parent="WIyWlLk6GJQsqaUBKTNV-1">
          <mxGeometry x="350" y="350" width="80" height="80" as="geometry" />
        </mxCell>
        <mxCell id="bOfqtVTBMC3ul8wbQ4u8-10" value="False" style="text;html=1;align=center;verticalAlign=middle;resizable=0;points=[];autosize=1;strokeColor=none;fillColor=none;" vertex="1" parent="WIyWlLk6GJQsqaUBKTNV-1">
          <mxGeometry x="340" y="310" width="50" height="30" as="geometry" />
        </mxCell>
        <mxCell id="bOfqtVTBMC3ul8wbQ4u8-24" style="edgeStyle=orthogonalEdgeStyle;rounded=0;orthogonalLoop=1;jettySize=auto;html=1;exitX=0;exitY=0.5;exitDx=0;exitDy=0;" edge="1" parent="WIyWlLk6GJQsqaUBKTNV-1" source="bOfqtVTBMC3ul8wbQ4u8-11">
          <mxGeometry relative="1" as="geometry">
            <mxPoint x="170" y="280" as="targetPoint" />
          </mxGeometry>
        </mxCell>
        <mxCell id="bOfqtVTBMC3ul8wbQ4u8-11" value="a = a - b" style="rounded=0;whiteSpace=wrap;html=1;" vertex="1" parent="WIyWlLk6GJQsqaUBKTNV-1">
          <mxGeometry x="190" y="440" width="120" height="60" as="geometry" />
        </mxCell>
        <mxCell id="bOfqtVTBMC3ul8wbQ4u8-23" style="edgeStyle=orthogonalEdgeStyle;rounded=0;orthogonalLoop=1;jettySize=auto;html=1;exitX=0;exitY=0.5;exitDx=0;exitDy=0;entryX=0;entryY=0.5;entryDx=0;entryDy=0;" edge="1" parent="WIyWlLk6GJQsqaUBKTNV-1" source="bOfqtVTBMC3ul8wbQ4u8-13" target="bOfqtVTBMC3ul8wbQ4u8-2">
          <mxGeometry relative="1" as="geometry">
            <Array as="points">
              <mxPoint x="170" y="390" />
              <mxPoint x="170" y="280" />
            </Array>
          </mxGeometry>
        </mxCell>
        <mxCell id="bOfqtVTBMC3ul8wbQ4u8-13" value="b = b - a&amp;nbsp;" style="rounded=0;whiteSpace=wrap;html=1;" vertex="1" parent="WIyWlLk6GJQsqaUBKTNV-1">
          <mxGeometry x="190" y="360" width="120" height="60" as="geometry" />
        </mxCell>
        <mxCell id="bOfqtVTBMC3ul8wbQ4u8-15" value="True" style="text;html=1;align=center;verticalAlign=middle;resizable=0;points=[];autosize=1;strokeColor=none;fillColor=none;" vertex="1" parent="WIyWlLk6GJQsqaUBKTNV-1">
          <mxGeometry x="330" y="440" width="50" height="30" as="geometry" />
        </mxCell>
        <mxCell id="bOfqtVTBMC3ul8wbQ4u8-16" value="False" style="text;html=1;align=center;verticalAlign=middle;resizable=0;points=[];autosize=1;strokeColor=none;fillColor=none;" vertex="1" parent="WIyWlLk6GJQsqaUBKTNV-1">
          <mxGeometry x="305" y="358" width="50" height="30" as="geometry" />
        </mxCell>
        <mxCell id="bOfqtVTBMC3ul8wbQ4u8-28" value="" style="edgeStyle=orthogonalEdgeStyle;rounded=0;orthogonalLoop=1;jettySize=auto;html=1;" edge="1" parent="WIyWlLk6GJQsqaUBKTNV-1" source="bOfqtVTBMC3ul8wbQ4u8-21" target="bOfqtVTBMC3ul8wbQ4u8-22">
          <mxGeometry relative="1" as="geometry" />
        </mxCell>
        <mxCell id="bOfqtVTBMC3ul8wbQ4u8-21" value="BCNN= a1*b1/UCLN" style="rounded=0;whiteSpace=wrap;html=1;" vertex="1" parent="WIyWlLk6GJQsqaUBKTNV-1">
          <mxGeometry x="650" y="250" width="120" height="60" as="geometry" />
        </mxCell>
        <mxCell id="bOfqtVTBMC3ul8wbQ4u8-29" value="" style="edgeStyle=orthogonalEdgeStyle;rounded=0;orthogonalLoop=1;jettySize=auto;html=1;" edge="1" parent="WIyWlLk6GJQsqaUBKTNV-1" source="bOfqtVTBMC3ul8wbQ4u8-22" target="bOfqtVTBMC3ul8wbQ4u8-26">
          <mxGeometry relative="1" as="geometry" />
        </mxCell>
        <mxCell id="bOfqtVTBMC3ul8wbQ4u8-22" value="BCNN" style="shape=parallelogram;perimeter=parallelogramPerimeter;whiteSpace=wrap;html=1;fixedSize=1;" vertex="1" parent="WIyWlLk6GJQsqaUBKTNV-1">
          <mxGeometry x="650" y="350" width="120" height="60" as="geometry" />
        </mxCell>
        <mxCell id="bOfqtVTBMC3ul8wbQ4u8-26" value="End" style="ellipse;whiteSpace=wrap;html=1;" vertex="1" parent="WIyWlLk6GJQsqaUBKTNV-1">
          <mxGeometry x="650" y="450" width="120" height="80" as="geometry" />
        </mxCell>
        <mxCell id="bOfqtVTBMC3ul8wbQ4u8-30" value="a1=a; b1=b" style="rounded=0;whiteSpace=wrap;html=1;" vertex="1" parent="WIyWlLk6GJQsqaUBKTNV-1">
          <mxGeometry x="510" y="140" width="120" height="60" as="geometry" />
        </mxCell>
        <mxCell id="bOfqtVTBMC3ul8wbQ4u8-33" value="" style="endArrow=classic;html=1;rounded=0;exitX=0.5;exitY=1;exitDx=0;exitDy=0;" edge="1" parent="WIyWlLk6GJQsqaUBKTNV-1" source="bOfqtVTBMC3ul8wbQ4u8-30" target="bOfqtVTBMC3ul8wbQ4u8-2">
          <mxGeometry width="50" height="50" relative="1" as="geometry">
            <mxPoint x="320" y="290" as="sourcePoint" />
            <mxPoint x="370" y="240" as="targetPoint" />
          </mxGeometry>
        </mxCell>
      </root>
    </mxGraphModel>
  </diagram>
</mxfile>
